<svg width="30" height="30" viewBox="0 0 30 30" fill="none" xmlns="http://www.w3.org/2000/svg">
<g clip-path="url(#clip0_29_518)">
<path d="M21.586 1.07227L18.3224 4.3418L25.6583 11.6777L28.922 8.41406C30.2052 7.13086 30.2052 5.05664 28.922 3.77344L26.2266 1.07227C24.9434 -0.210938 22.8692 -0.210938 21.586 1.07227ZM16.8751 5.54297L16.336 5.70703L7.89266 8.23828C6.72665 8.58984 5.80087 9.48047 5.41415 10.6406L0.222743 26.1211C8.66205e-05 26.7832 0.164149 27.5215 0.650477 28.0195L9.65048 19.0254C9.4747 18.6562 9.37509 18.2461 9.37509 17.8125C9.37509 16.2598 10.6349 15 12.1876 15C13.7403 15 15.0001 16.2598 15.0001 17.8125C15.0001 19.3652 13.7403 20.625 12.1876 20.625C11.754 20.625 11.3438 20.5254 10.9747 20.3496L1.9747 29.3496C2.4786 29.8359 3.21102 30.0059 3.87313 29.7773L19.3595 24.5859C20.5138 24.1992 21.4102 23.2734 21.7618 22.1074L24.2931 13.6641L24.4513 13.125L16.8751 5.54297Z" fill="#B49C73"/>
</g>
<defs>
<clipPath id="clip0_29_518">
<rect width="30" height="30" fill="white"/>
</clipPath>
</defs>
</svg>
