<svg width="20" height="25" viewBox="0 0 20 25" fill="none" xmlns="http://www.w3.org/2000/svg">
<path d="M11.2344 24.375C13.9062 21.2402 20 13.6426 20 9.375C20 4.19922 15.5208 0 10 0C4.47917 0 0 4.19922 0 9.375C0 13.6426 6.09375 21.2402 8.76562 24.375C9.40625 25.1221 10.5937 25.1221 11.2344 24.375ZM10 6.25C10.8841 6.25 11.7319 6.57924 12.357 7.16529C12.9821 7.75134 13.3333 8.5462 13.3333 9.375C13.3333 10.2038 12.9821 10.9987 12.357 11.5847C11.7319 12.1708 10.8841 12.5 10 12.5C9.11594 12.5 8.2681 12.1708 7.64298 11.5847C7.01786 10.9987 6.66667 10.2038 6.66667 9.375C6.66667 8.5462 7.01786 7.75134 7.64298 7.16529C8.2681 6.57924 9.11594 6.25 10 6.25Z" fill="#858585"/>
</svg>
