<svg width="20" height="18" viewBox="0 0 20 18" fill="none" xmlns="http://www.w3.org/2000/svg">
<path d="M0 2.5H20C20 1.12109 19.0035 0 17.7778 0H2.22222C0.996528 0 0 1.12109 0 2.5ZM0 3.75V15C0 16.3789 0.996528 17.5 2.22222 17.5H17.7778C19.0035 17.5 20 16.3789 20 15V3.75H0ZM2.22222 14.582C2.22222 13.4297 3.05208 12.5 4.07292 12.5H8.14583C9.17014 12.5 9.99653 13.4336 9.99653 14.582C9.99653 14.8125 9.82986 15 9.625 15H2.59375C2.38889 15 2.22222 14.8125 2.22222 14.582ZM6.11111 6.25C6.70048 6.25 7.26571 6.51339 7.68246 6.98223C8.09921 7.45107 8.33333 8.08696 8.33333 8.75C8.33333 9.41304 8.09921 10.0489 7.68246 10.5178C7.26571 10.9866 6.70048 11.25 6.11111 11.25C5.52174 11.25 4.95651 10.9866 4.53976 10.5178C4.12302 10.0489 3.88889 9.41304 3.88889 8.75C3.88889 8.08696 4.12302 7.45107 4.53976 6.98223C4.95651 6.51339 5.52174 6.25 6.11111 6.25ZM12.2222 6.875C12.2222 6.53125 12.4722 6.25 12.7778 6.25H17.2222C17.5278 6.25 17.7778 6.53125 17.7778 6.875C17.7778 7.21875 17.5278 7.5 17.2222 7.5H12.7778C12.4722 7.5 12.2222 7.21875 12.2222 6.875ZM12.2222 9.375C12.2222 9.03125 12.4722 8.75 12.7778 8.75H17.2222C17.5278 8.75 17.7778 9.03125 17.7778 9.375C17.7778 9.71875 17.5278 10 17.2222 10H12.7778C12.4722 10 12.2222 9.71875 12.2222 9.375ZM12.2222 11.875C12.2222 11.5312 12.4722 11.25 12.7778 11.25H17.2222C17.5278 11.25 17.7778 11.5312 17.7778 11.875C17.7778 12.2188 17.5278 12.5 17.2222 12.5H12.7778C12.4722 12.5 12.2222 12.2188 12.2222 11.875Z" fill="#858585"/>
</svg>
