<svg width="30" height="30" viewBox="0 0 30 30" fill="none" xmlns="http://www.w3.org/2000/svg">
<g clip-path="url(#clip0_29_434)">
<path d="M11.4174 3.02344L10.1451 4.6875H19.8549L18.5826 3.02344C18.4821 2.89453 18.3147 2.8125 18.1339 2.8125H11.8594C11.6786 2.8125 11.5112 2.88867 11.4107 3.02344H11.4174ZM21.2612 1.46484L23.7188 4.6875H24.6429H27.8571H28.3929C29.2835 4.6875 30 5.31445 30 6.09375C30 6.87305 29.2835 7.5 28.3929 7.5H27.8571V25.3125C27.8571 27.9023 25.4598 30 22.5 30H7.5C4.54018 30 2.14286 27.9023 2.14286 25.3125V7.5H1.60714C0.716518 7.5 0 6.87305 0 6.09375C0 5.31445 0.716518 4.6875 1.60714 4.6875H2.14286H5.35714H6.28125L8.73884 1.45898C9.43527 0.550781 10.6071 0 11.8594 0H18.1339C19.3862 0 20.558 0.550781 21.2545 1.45898L21.2612 1.46484ZM5.35714 7.5V25.3125C5.35714 26.3496 6.31473 27.1875 7.5 27.1875H22.5C23.6853 27.1875 24.6429 26.3496 24.6429 25.3125V7.5H5.35714ZM10.7143 11.25V23.4375C10.7143 23.9531 10.2321 24.375 9.64286 24.375C9.05357 24.375 8.57143 23.9531 8.57143 23.4375V11.25C8.57143 10.7344 9.05357 10.3125 9.64286 10.3125C10.2321 10.3125 10.7143 10.7344 10.7143 11.25ZM16.0714 11.25V23.4375C16.0714 23.9531 15.5893 24.375 15 24.375C14.4107 24.375 13.9286 23.9531 13.9286 23.4375V11.25C13.9286 10.7344 14.4107 10.3125 15 10.3125C15.5893 10.3125 16.0714 10.7344 16.0714 11.25ZM21.4286 11.25V23.4375C21.4286 23.9531 20.9464 24.375 20.3571 24.375C19.7679 24.375 19.2857 23.9531 19.2857 23.4375V11.25C19.2857 10.7344 19.7679 10.3125 20.3571 10.3125C20.9464 10.3125 21.4286 10.7344 21.4286 11.25Z" fill="#B49C73"/>
</g>
<defs>
<clipPath id="clip0_29_434">
<rect width="30" height="30" fill="white"/>
</clipPath>
</defs>
</svg>
